My personal rip from the Bluray. Is an excellent comedy with Montand and Funes. You have english and romanian subtitles.
 
http://www.imdb.com/title/tt0067108/

User Comments IMDB


This movie is a delightful parody of Victor Hugo's masterpiece 'Ruy Blas'. Alice Sapritch (the duegna to the Queen) is, as usual, magnificent. Louis de Funes and Yves Montand make a hilarious and exhilarating pair. Highly recommended. 

Specifications:
Format                           : Matroska
File size                        : 4.95 GiB
Duration                         : 1h 49mn
Overall bit rate                 : 6 501 Kbps

Video
ID                               : 1
Format                           : AVC
Format profile                   : High@L4.1
Format settings, CABAC           : Yes
Format settings, ReFrames        : 4 frames
Duration                         : 1h 49mn
Bit rate                         : 5 988 Kbps
Width                            : 1 280 pixels
Height                           : 688 pixels
Display aspect ratio             : 1.860
Frame rate                       : 24.000 fps
Bits/(Pixel*Frame)               : 0.283
Stream size                      : 4.56 GiB (92%)
Writing library                  : x264 core 98 r1649 c54c47d

Audio
ID                               : 2
Codec ID                         : A_AC3
Duration                         : 1h 49mn
Bit rate mode                    : Constant
Bit rate                         : 384 Kbps
Channel(s)                       : 2 channels
Channel positions                : Front: L R
Sampling rate                    : 48.0 KHz
Bit depth                        : 16 bits
Stream size                      : 300 MiB (6%)
Language                         : French